<mxfile host="app.diagrams.net" modified="2024-06-13T15:36:39.703Z" agent="Mozilla/5.0 (Windows NT 10.0; Win64; x64) AppleWebKit/537.36 (KHTML, like Gecko) Chrome/125.0.0.0 Safari/537.36" etag="HYSnaFjzgqXMmTSLxSN_" version="24.5.4" type="github">
  <diagram name="Page-1" id="KcLGceUInaaqGj986mR8">
    <mxGraphModel dx="1687" dy="868" grid="1" gridSize="10" guides="1" tooltips="1" connect="1" arrows="1" fold="1" page="1" pageScale="1" pageWidth="583" pageHeight="413" math="0" shadow="0">
      <root>
        <mxCell id="0" />
        <mxCell id="1" parent="0" />
        <mxCell id="A1lwf6nw6C6qFr-HzHYS-15" style="edgeStyle=orthogonalEdgeStyle;rounded=0;orthogonalLoop=1;jettySize=auto;html=1;entryX=0;entryY=0.5;entryDx=0;entryDy=0;" edge="1" parent="1" source="A1lwf6nw6C6qFr-HzHYS-3" target="A1lwf6nw6C6qFr-HzHYS-5">
          <mxGeometry relative="1" as="geometry" />
        </mxCell>
        <mxCell id="A1lwf6nw6C6qFr-HzHYS-3" value="" style="shape=image;verticalLabelPosition=bottom;labelBackgroundColor=default;verticalAlign=top;aspect=fixed;imageAspect=0;image=https://cdn-icons-png.flaticon.com/512/33/33308.png;" vertex="1" parent="1">
          <mxGeometry x="60" y="330" width="100" height="100" as="geometry" />
        </mxCell>
        <mxCell id="A1lwf6nw6C6qFr-HzHYS-16" style="edgeStyle=orthogonalEdgeStyle;rounded=0;orthogonalLoop=1;jettySize=auto;html=1;entryX=0;entryY=0.5;entryDx=0;entryDy=0;" edge="1" parent="1" source="A1lwf6nw6C6qFr-HzHYS-5" target="A1lwf6nw6C6qFr-HzHYS-6">
          <mxGeometry relative="1" as="geometry" />
        </mxCell>
        <mxCell id="A1lwf6nw6C6qFr-HzHYS-5" value="" style="shape=image;verticalLabelPosition=bottom;labelBackgroundColor=default;verticalAlign=top;aspect=fixed;imageAspect=0;image=https://cdn-icons-png.flaticon.com/512/266/266139.png;" vertex="1" parent="1">
          <mxGeometry x="280" y="330" width="100" height="100" as="geometry" />
        </mxCell>
        <mxCell id="A1lwf6nw6C6qFr-HzHYS-17" style="edgeStyle=orthogonalEdgeStyle;rounded=0;orthogonalLoop=1;jettySize=auto;html=1;exitX=1;exitY=0.5;exitDx=0;exitDy=0;entryX=0;entryY=0.5;entryDx=0;entryDy=0;" edge="1" parent="1" source="A1lwf6nw6C6qFr-HzHYS-6" target="A1lwf6nw6C6qFr-HzHYS-7">
          <mxGeometry relative="1" as="geometry" />
        </mxCell>
        <mxCell id="A1lwf6nw6C6qFr-HzHYS-18" style="edgeStyle=orthogonalEdgeStyle;rounded=0;orthogonalLoop=1;jettySize=auto;html=1;entryX=0;entryY=0.5;entryDx=0;entryDy=0;" edge="1" parent="1" source="A1lwf6nw6C6qFr-HzHYS-6" target="A1lwf6nw6C6qFr-HzHYS-8">
          <mxGeometry relative="1" as="geometry" />
        </mxCell>
        <mxCell id="A1lwf6nw6C6qFr-HzHYS-20" style="edgeStyle=orthogonalEdgeStyle;rounded=0;orthogonalLoop=1;jettySize=auto;html=1;exitX=1;exitY=0.5;exitDx=0;exitDy=0;entryX=0;entryY=0.5;entryDx=0;entryDy=0;" edge="1" parent="1" source="A1lwf6nw6C6qFr-HzHYS-6" target="A1lwf6nw6C6qFr-HzHYS-10">
          <mxGeometry relative="1" as="geometry" />
        </mxCell>
        <mxCell id="A1lwf6nw6C6qFr-HzHYS-6" value="" style="shape=image;verticalLabelPosition=bottom;labelBackgroundColor=default;verticalAlign=top;aspect=fixed;imageAspect=0;image=https://freelogopng.com/images/all_img/1683021055metamask-icon.png;" vertex="1" parent="1">
          <mxGeometry x="490" y="330" width="100" height="100" as="geometry" />
        </mxCell>
        <mxCell id="A1lwf6nw6C6qFr-HzHYS-7" value="" style="shape=image;verticalLabelPosition=bottom;labelBackgroundColor=default;verticalAlign=top;aspect=fixed;imageAspect=0;image=https://cdn-icons-png.freepik.com/512/7225/7225205.png;" vertex="1" parent="1">
          <mxGeometry x="731.5" y="60" width="107" height="107" as="geometry" />
        </mxCell>
        <mxCell id="A1lwf6nw6C6qFr-HzHYS-8" value="" style="shape=image;verticalLabelPosition=bottom;labelBackgroundColor=default;verticalAlign=top;aspect=fixed;imageAspect=0;image=https://cdn-icons-png.freepik.com/512/7225/7225205.png;" vertex="1" parent="1">
          <mxGeometry x="731.5" y="223" width="107" height="107" as="geometry" />
        </mxCell>
        <mxCell id="A1lwf6nw6C6qFr-HzHYS-9" value="" style="shape=image;verticalLabelPosition=bottom;labelBackgroundColor=default;verticalAlign=top;aspect=fixed;imageAspect=0;image=https://cdn-icons-png.freepik.com/512/7225/7225205.png;" vertex="1" parent="1">
          <mxGeometry x="731.5" y="400" width="107" height="107" as="geometry" />
        </mxCell>
        <mxCell id="A1lwf6nw6C6qFr-HzHYS-10" value="" style="shape=image;verticalLabelPosition=bottom;labelBackgroundColor=default;verticalAlign=top;aspect=fixed;imageAspect=0;image=https://cdn-icons-png.freepik.com/512/7225/7225205.png;" vertex="1" parent="1">
          <mxGeometry x="731.5" y="600" width="107" height="107" as="geometry" />
        </mxCell>
        <mxCell id="A1lwf6nw6C6qFr-HzHYS-11" value="" style="shape=image;verticalLabelPosition=bottom;labelBackgroundColor=default;verticalAlign=top;aspect=fixed;imageAspect=0;image=https://cdn-icons-png.freepik.com/512/2152/2152349.png;" vertex="1" parent="1">
          <mxGeometry x="1110" y="260" width="272" height="272" as="geometry" />
        </mxCell>
        <mxCell id="A1lwf6nw6C6qFr-HzHYS-12" value="Usuarios" style="text;html=1;align=center;verticalAlign=middle;resizable=0;points=[];autosize=1;strokeColor=none;fillColor=none;fontSize=16;fontStyle=1" vertex="1" parent="1">
          <mxGeometry x="65" y="428.5" width="90" height="30" as="geometry" />
        </mxCell>
        <mxCell id="A1lwf6nw6C6qFr-HzHYS-13" value="Interfaz/Frontend" style="text;html=1;align=center;verticalAlign=middle;resizable=0;points=[];autosize=1;strokeColor=none;fillColor=none;fontSize=16;fontStyle=1" vertex="1" parent="1">
          <mxGeometry x="250" y="428.5" width="150" height="30" as="geometry" />
        </mxCell>
        <mxCell id="A1lwf6nw6C6qFr-HzHYS-14" value="&lt;font style=&quot;font-size: 16px;&quot;&gt;&lt;b&gt;BilleteraMetamask&lt;/b&gt;&lt;/font&gt;" style="text;html=1;align=center;verticalAlign=middle;resizable=0;points=[];autosize=1;strokeColor=none;fillColor=none;" vertex="1" parent="1">
          <mxGeometry x="460" y="430" width="160" height="30" as="geometry" />
        </mxCell>
        <mxCell id="A1lwf6nw6C6qFr-HzHYS-19" style="edgeStyle=orthogonalEdgeStyle;rounded=0;orthogonalLoop=1;jettySize=auto;html=1;exitX=1;exitY=0.5;exitDx=0;exitDy=0;entryX=-0.009;entryY=0.598;entryDx=0;entryDy=0;entryPerimeter=0;" edge="1" parent="1" source="A1lwf6nw6C6qFr-HzHYS-6" target="A1lwf6nw6C6qFr-HzHYS-9">
          <mxGeometry relative="1" as="geometry" />
        </mxCell>
        <mxCell id="A1lwf6nw6C6qFr-HzHYS-21" value="Contrato inteligente&lt;br&gt;estudiante" style="text;html=1;align=center;verticalAlign=middle;resizable=0;points=[];autosize=1;strokeColor=none;fillColor=none;fontSize=16;fontStyle=1" vertex="1" parent="1">
          <mxGeometry x="705" y="167" width="160" height="50" as="geometry" />
        </mxCell>
        <mxCell id="A1lwf6nw6C6qFr-HzHYS-22" value="Contrato inteligente&lt;br&gt;docentes" style="text;html=1;align=center;verticalAlign=middle;resizable=0;points=[];autosize=1;strokeColor=none;fillColor=none;fontSize=16;fontStyle=1" vertex="1" parent="1">
          <mxGeometry x="700" y="330" width="160" height="50" as="geometry" />
        </mxCell>
        <mxCell id="A1lwf6nw6C6qFr-HzHYS-23" value="Contrato inteligente&lt;br&gt;salones" style="text;html=1;align=center;verticalAlign=middle;resizable=0;points=[];autosize=1;strokeColor=none;fillColor=none;fontSize=16;fontStyle=1" vertex="1" parent="1">
          <mxGeometry x="700" y="507" width="160" height="50" as="geometry" />
        </mxCell>
        <mxCell id="A1lwf6nw6C6qFr-HzHYS-24" value="Contrato inteligente&lt;br&gt;horarios" style="text;html=1;align=center;verticalAlign=middle;resizable=0;points=[];autosize=1;strokeColor=none;fillColor=none;fontSize=16;fontStyle=1" vertex="1" parent="1">
          <mxGeometry x="690" y="707" width="160" height="50" as="geometry" />
        </mxCell>
        <mxCell id="A1lwf6nw6C6qFr-HzHYS-25" value="Blockchain" style="text;html=1;align=center;verticalAlign=middle;resizable=0;points=[];autosize=1;strokeColor=none;fillColor=none;fontSize=16;fontStyle=1" vertex="1" parent="1">
          <mxGeometry x="1196" y="532" width="100" height="30" as="geometry" />
        </mxCell>
        <mxCell id="A1lwf6nw6C6qFr-HzHYS-29" value="" style="shape=flexArrow;endArrow=classic;startArrow=classic;html=1;rounded=0;fillColor=#000000;gradientColor=#000000;strokeColor=#FFFFFF;" edge="1" parent="1">
          <mxGeometry width="100" height="100" relative="1" as="geometry">
            <mxPoint x="890" y="410" as="sourcePoint" />
            <mxPoint x="1080" y="410" as="targetPoint" />
          </mxGeometry>
        </mxCell>
      </root>
    </mxGraphModel>
  </diagram>
</mxfile>
